# xmcd CD database file
#
# Track frame offsets:
#	150
#	14931
#	29860
#	46881
#	61721
#	77677
#	91250
#	103072
#	118681
#	137180
#	151632
#	166293
#	180258
#	194126
#	201564
#	216527
#	231501
#	246129
#	261507
#
# Disc length: 3690 seconds
#
# Revision: 0
# Processed by: cddbd v1.5.2PL0 Copyright (c) Steve Scherf et al.
# Submitted via: CDex 1.51
#
DISCID=1e0e6813
DTITLE=Frank Sinatra - The Sound Track Volume 2 1940-1942
DYEAR=1900
DGENRE=Jazz
TTITLE0=Stardust
TTITLE1=It's Always You
TTITLE2=This Love Of Mine
TTITLE3=Everything Happens To Me
TTITLE4=The Night We Called It A Day
TTITLE5=Lamplighter's Serenade
TTITLE6=The Sunshine Of Your Smile
TTITLE7=I'll Take Tallulah
TTITLE8=The Song Is You
TTITLE9=If You Are But A Dream
TTITLE10=A Lovely Way To Spend An Evening
TTITLE11=I Couldn't Sleep A Wink Last Night
TTITLE12=The Music Stopped
TTITLE13=Put Your Dreams Away
TTITLE14=Nancy With The Laughing Face
TTITLE15=Where Or When
TTITLE16=These Foolish Things
TTITLE17=Among My Souvenirs
TTITLE18=What Is America To Me
EXTD=
EXTT0=
EXTT1=
EXTT2=
EXTT3=
EXTT4=
EXTT5=
EXTT6=
EXTT7=
EXTT8=
EXTT9=
EXTT10=
EXTT11=
EXTT12=
EXTT13=
EXTT14=
EXTT15=
EXTT16=
EXTT17=
EXTT18=
PLAYORDER=
